<svg width="57" height="50" viewBox="0 0 57 50" fill="none" xmlns="http://www.w3.org/2000/svg">
<path fill-rule="evenodd" clip-rule="evenodd" d="M23.8427 33.9954C22.7423 32.3118 21.9479 30.4542 21.4948 28.505L21.4058 28.5341C20.8853 26.2887 20.8297 23.964 21.2424 21.6972C21.6551 19.4305 22.5276 17.2677 23.8084 15.337C24.6426 14.1079 25.3075 12.7763 25.7859 11.3768C27.0354 7.66983 26.9552 3.65618 25.5585 0C28.3639 2.39301 30.3201 5.59711 31.1448 9.14988C31.8672 12.2555 31.6952 15.4966 30.6478 18.5122C29.6004 21.5278 27.7187 24.1995 25.2124 26.2297C24.0324 27.1301 23.2396 28.431 22.9908 29.8757C22.7444 31.3053 23.0483 32.7731 23.8427 33.9954ZM44.3147 37.6936C44.9911 39.0021 45.8423 40.2167 46.8458 41.3052C49.5003 44.1952 53.0825 46.1113 57 46.737C53.483 47.9131 49.6764 47.9707 46.124 46.9016C43.0175 45.9656 40.2377 44.2023 38.0954 41.8086C35.953 39.4149 34.5325 36.485 33.9924 33.3462C33.7953 31.8936 33.0449 30.5676 31.8916 29.6339C30.7696 28.7254 29.3468 28.2537 27.8947 28.3058C29.9069 28.2202 31.9193 28.4741 33.8441 29.0569C36.0895 29.7395 38.1727 30.8554 39.971 32.3387C41.7692 33.8219 43.2462 35.6427 44.3147 37.6936ZM27.7733 28.3114C27.8138 28.3094 27.8542 28.3075 27.8947 28.3058C27.8543 28.3072 27.8138 28.3091 27.7733 28.3114ZM30.9372 34.4307C30.2645 35.7403 29.1112 36.7526 27.7084 37.2643C26.3057 37.7761 24.7571 37.7496 23.3734 37.1902C20.3241 36.0711 17.017 35.8044 13.8219 36.4199C10.6266 37.0354 7.66913 38.509 5.27988 40.6758C2.55565 43.1576 0.70674 46.4226 0 50C2.53499 46.9866 6.04367 44.91 9.94656 44.1131C11.4128 43.8192 12.9108 43.7054 14.4057 43.7742C16.7507 43.8932 19.0961 43.5509 21.3037 42.7677C23.5112 41.9844 25.5363 40.776 27.2591 39.2138C28.7669 37.8426 30.0183 36.2239 30.9569 34.4307H30.9372Z" fill="#F4E5C2"/>
</svg>
