<svg width="48" height="48" viewBox="0 0 48 48" fill="none" xmlns="http://www.w3.org/2000/svg">
<path fill-rule="evenodd" clip-rule="evenodd" d="M24 47.72C37.2552 47.72 48 37.1006 48 24.0001C48 10.8996 37.2552 0.280273 24 0.280273C10.7448 0.280273 0 10.8996 0 24.0001C0 37.1006 10.7448 47.72 24 47.72ZM31.7568 27.2284L35.4624 30.9002C36.1992 31.6332 36.1752 32.8452 35.4144 33.6043L34.3536 34.629L34.3296 34.6076C33.4406 35.2821 32.3846 35.7081 31.272 35.8411C31.032 35.8672 25.428 36.3866 18.4728 29.4984C13.44 24.5148 11.5848 20.8406 12.0768 16.8225C12.132 16.3196 12.2568 15.8215 12.4608 15.2973C12.6768 14.747 12.9696 14.2347 13.32 13.7935L13.2912 13.765L14.3352 12.7237C15.1008 11.9647 16.3248 11.9433 17.0592 12.6739L20.7672 16.3457C21.504 17.0763 21.4824 18.286 20.7192 19.045L20.1 19.6546L18.8472 20.8952C18.9154 21.0132 18.9826 21.1318 19.0488 21.251L19.0512 21.2581C19.7064 22.4275 20.604 24.0262 22.3032 25.7079C24.0024 27.3921 25.6152 28.2792 26.796 28.9267L27.1632 29.1307L29.0304 27.2806C29.796 26.5215 31.0176 26.5002 31.7568 27.2308V27.2284Z" fill="white"/>
</svg>
