<svg width="48" height="48" viewBox="0 0 48 48" fill="none" xmlns="http://www.w3.org/2000/svg">
<path d="M48 10.92C47.973 9.88457 47.8929 8.85121 47.76 7.824C47.5808 6.9243 47.2822 6.05258 46.872 5.232C46.443 4.34185 45.8669 3.53046 45.168 2.832C44.4626 2.14129 43.6527 1.56622 42.768 1.128C41.9463 0.725866 41.0746 0.435296 40.176 0.264C39.1586 0.111598 38.1325 0.0234242 37.104 0H10.92C9.88457 0.0269674 8.85121 0.107073 7.824 0.24C6.9243 0.419204 6.05258 0.717848 5.232 1.128C4.34185 1.55697 3.53046 2.13305 2.832 2.832C2.14129 3.53739 1.56622 4.34735 1.128 5.232C0.725866 6.05367 0.435296 6.92538 0.264 7.824C0.111598 8.84144 0.0234242 9.86747 0 10.896C0 11.352 0 12 0 12.192V35.808C0 36.072 0 36.648 0 37.08C0.0269674 38.1154 0.107073 39.1488 0.24 40.176C0.419204 41.0757 0.717848 41.9474 1.128 42.768C1.55697 43.6581 2.13305 44.4695 2.832 45.168C3.53739 45.8587 4.34735 46.4338 5.232 46.872C6.05367 47.2741 6.92538 47.5647 7.824 47.736C8.84144 47.8884 9.86747 47.9766 10.896 48H37.08C38.1154 47.973 39.1488 47.8929 40.176 47.76C41.0757 47.5808 41.9474 47.2822 42.768 46.872C43.6581 46.443 44.4695 45.8669 45.168 45.168C45.8587 44.4626 46.4338 43.6527 46.872 42.768C47.2741 41.9463 47.5647 41.0746 47.736 40.176C47.8884 39.1586 47.9766 38.1325 48 37.104C48 36.648 48 36.072 48 35.808V12.192C48 12 48 11.352 48 10.92ZM24.552 40.8C21.6697 40.7858 18.8379 40.0427 16.32 38.64L7.2 41.04L9.6 32.112C8.05227 29.5115 7.22397 26.5461 7.2 23.52C7.20956 20.119 8.22529 16.7969 10.1193 13.9721C12.0132 11.1473 14.7008 8.94607 17.8433 7.64572C20.9859 6.34536 24.443 6.00401 27.7792 6.66465C31.1155 7.32529 34.1816 8.95839 36.5914 11.3582C39.0013 13.7581 40.6471 16.8174 41.3216 20.1508C41.9961 23.4843 41.6692 26.9428 40.3819 30.0907C39.0946 33.2387 36.9046 35.9354 34.0877 37.8411C31.2708 39.7468 27.9529 40.7763 24.552 40.8ZM24.552 9.288C22.0075 9.31712 19.5162 10.02 17.3317 11.325C15.1472 12.63 13.3475 14.4906 12.1159 16.7172C10.8843 18.9439 10.2647 21.4572 10.3202 24.0013C10.3757 26.5453 11.1044 29.0292 12.432 31.2L12.768 31.752L11.328 37.008L16.8 35.52L17.328 35.832C19.511 37.1178 21.9946 37.8049 24.528 37.824C28.3471 37.824 32.0098 36.3069 34.7103 33.6063C37.4109 30.9058 38.928 27.2431 38.928 23.424C38.928 19.6049 37.4109 15.9422 34.7103 13.2417C32.0098 10.5411 28.3471 9.024 24.528 9.024L24.552 9.288ZM32.952 29.736C32.6377 30.2603 32.2168 30.7128 31.7165 31.0642C31.2163 31.4156 30.6479 31.6581 30.048 31.776C29.1517 31.9398 28.2289 31.8822 27.36 31.608C26.5424 31.3524 25.741 31.0478 24.96 30.696C21.993 29.2072 19.4627 26.9746 17.616 24.216C16.6125 22.9379 16.0037 21.3949 15.864 19.776C15.8497 19.1035 15.9769 18.4355 16.2374 17.8153C16.4979 17.1951 16.8858 16.6366 17.376 16.176C17.5204 16.0123 17.6975 15.8807 17.896 15.7898C18.0944 15.6988 18.3097 15.6505 18.528 15.648H19.2C19.464 15.648 19.824 15.648 20.16 16.392C20.496 17.136 21.384 19.368 21.504 19.584C21.563 19.6991 21.5937 19.8266 21.5937 19.956C21.5937 20.0854 21.563 20.2129 21.504 20.328C21.3979 20.5888 21.2522 20.8317 21.072 21.048C20.856 21.312 20.616 21.624 20.424 21.816C20.232 22.008 19.992 22.248 20.232 22.68C20.885 23.7821 21.6933 24.7843 22.632 25.656C23.6542 26.5593 24.823 27.2816 26.088 27.792C26.52 28.008 26.784 27.984 27.024 27.792C27.264 27.6 28.104 26.544 28.392 26.112C28.68 25.68 28.968 25.752 29.352 25.896C29.736 26.04 31.872 27.072 32.304 27.288C32.736 27.504 33 27.6 33.12 27.792C33.2241 28.4201 33.1663 29.0644 32.952 29.664V29.736Z" fill="#1BBF00"/>
</svg>
