<svg width="183" height="50" viewBox="0 0 183 50" fill="none" xmlns="http://www.w3.org/2000/svg">
<path d="M46.8458 41.3052C45.8423 40.2167 44.9911 39.0021 44.3147 37.6936C43.2462 35.6427 41.7692 33.8219 39.971 32.3387C38.1727 30.8554 36.0895 29.7395 33.8441 29.0569C31.8806 28.4624 29.8259 28.2101 27.7733 28.3114C29.2673 28.2278 30.7383 28.7001 31.8916 29.6339C33.0449 30.5676 33.7953 31.8936 33.9924 33.3462C34.5325 36.485 35.953 39.4149 38.0954 41.8086C40.2377 44.2023 43.0175 45.9656 46.124 46.9016C49.6764 47.9707 53.483 47.9131 57 46.737C53.0825 46.1113 49.5003 44.1952 46.8458 41.3052Z" fill="#8559A5"/>
<path d="M21.4948 28.505C21.9513 30.469 22.7544 32.34 23.8678 34.0337C23.0547 32.8038 22.7418 31.3203 22.9908 29.8757C23.2396 28.431 24.0324 27.1301 25.2124 26.2297C27.7187 24.1995 29.6004 21.5278 30.6478 18.5122C31.6952 15.4966 31.8672 12.2555 31.1448 9.14988C30.3201 5.59711 28.3639 2.39301 25.5585 0C26.9552 3.65618 27.0354 7.66983 25.7859 11.3768C25.3075 12.7763 24.6426 14.1079 23.8084 15.337C22.5276 17.2677 21.6551 19.4305 21.2424 21.6972C20.8297 23.964 20.8853 26.2887 21.4058 28.5341L21.4948 28.505Z" fill="#F4E5C2"/>
<path d="M30.9372 34.4307C30.2645 35.7403 29.1112 36.7526 27.7084 37.2643C26.3057 37.7761 24.7571 37.7496 23.3734 37.1902C20.3241 36.0711 17.017 35.8044 13.8219 36.4199C10.6266 37.0354 7.66913 38.509 5.27988 40.6758C2.55565 43.1576 0.70674 46.4226 0 50C2.53499 46.9866 6.04367 44.91 9.94656 44.1131C11.4128 43.8192 12.9108 43.7054 14.4057 43.7742C16.7507 43.8932 19.0961 43.5509 21.3037 42.7677C23.5112 41.9844 25.5363 40.776 27.2591 39.2138C28.7669 37.8426 30.0183 36.2239 30.9569 34.4307H30.9372Z" fill="#6DB193"/>
<path d="M83 15.5938H89.9388C91.4299 15.5938 92.7009 15.8216 93.7518 16.2773C94.8027 16.7331 95.6067 17.4076 96.1636 18.3008C96.7295 19.1849 97.0124 20.2786 97.0124 21.582C97.0124 22.5755 96.8327 23.4505 96.4735 24.207C96.1142 24.9635 95.6067 25.6016 94.951 26.1211C94.2952 26.6315 93.5138 27.028 92.6066 27.3105L91.5826 27.8164H85.3444L85.3174 25.0957H89.9927C90.8011 25.0957 91.4748 24.9499 92.0137 24.6582C92.5527 24.3665 92.9569 23.9701 93.2264 23.4688C93.5048 22.9583 93.644 22.3841 93.644 21.7461C93.644 21.0534 93.5093 20.4518 93.2398 19.9414C92.9793 19.4219 92.5751 19.0254 92.0272 18.752C91.4793 18.4694 90.7832 18.3281 89.9388 18.3281H86.3818V41H83V15.5938ZM94.1964 35.5L89.5885 26.5586L93.132 26.5449L97.8073 35.3223V35.5H94.1964Z" fill="#F4E5C2"/>
<path d="M108.829 32.0137V20.707H112.089V35.5H109.017L108.829 32.0137ZM109.287 28.9375L110.378 28.9102C110.378 29.9036 110.27 30.8197 110.055 31.6582C109.839 32.4876 109.507 33.2122 109.058 33.832C108.609 34.4427 108.034 34.9212 107.333 35.2676C106.632 35.6048 105.793 35.7734 104.814 35.7734C104.104 35.7734 103.453 35.6686 102.86 35.459C102.267 35.2493 101.755 34.9258 101.324 34.4883C100.902 34.0508 100.574 33.4811 100.34 32.7793C100.107 32.0775 99.99 31.2389 99.99 30.2637V20.707H103.237V30.291C103.237 30.8288 103.3 31.2799 103.426 31.6445C103.552 32 103.722 32.2871 103.938 32.5059C104.153 32.7246 104.405 32.8796 104.692 32.9707C104.98 33.0618 105.285 33.1074 105.608 33.1074C106.534 33.1074 107.261 32.9251 107.791 32.5605C108.33 32.1868 108.712 31.6855 108.936 31.0566C109.17 30.4277 109.287 29.7214 109.287 28.9375Z" fill="#F4E5C2"/>
<path d="M118.637 23.8652V40H115.39V20.707H118.449L118.637 23.8652ZM118.058 27.5566L117.007 27.543C117.016 26.4948 117.16 25.5332 117.438 24.6582C117.726 23.7832 118.121 23.0312 118.624 22.4023C119.136 21.7734 119.747 21.2904 120.456 20.9531C121.166 20.6068 121.956 20.4336 122.828 20.4336C123.528 20.4336 124.161 20.5339 124.727 20.7344C125.302 20.9258 125.792 21.2402 126.196 21.6777C126.609 22.1152 126.923 22.6849 127.139 23.3867C127.355 24.0794 127.462 24.9316 127.462 25.9434V40H124.202V25.9297C124.202 25.2188 124.099 24.6582 123.892 24.248C123.694 23.8288 123.402 23.5326 123.016 23.3594C122.639 23.1771 122.167 23.0859 121.601 23.0859C121.045 23.0859 120.546 23.2044 120.106 23.4414C119.666 23.6784 119.293 24.002 118.988 24.4121C118.691 24.8223 118.462 25.2962 118.3 25.834C118.139 26.3717 118.058 26.946 118.058 27.5566Z" fill="#F4E5C2"/>
<path d="M131.1 15.5938H138.039C139.53 15.5938 140.801 15.8216 141.852 16.2773C142.903 16.7331 143.707 17.4076 144.264 18.3008C144.83 19.1849 145.113 20.2786 145.113 21.582C145.113 22.5755 144.933 23.4505 144.574 24.207C144.214 24.9635 143.707 25.6016 143.051 26.1211C142.395 26.6315 141.614 27.028 140.707 27.3105L139.683 27.8164H133.445L133.418 25.0957H138.093C138.901 25.0957 139.575 24.9499 140.114 24.6582C140.653 24.3665 141.057 23.9701 141.327 23.4688C141.605 22.9583 141.744 22.3841 141.744 21.7461C141.744 21.0534 141.61 20.4518 141.34 19.9414C141.08 19.4219 140.675 19.0254 140.127 18.752C139.58 18.4694 138.883 18.3281 138.039 18.3281H134.482V35.5H131.1V15.5938ZM142.297 35.5L137.689 26.5586L141.232 26.5449L145.908 35.3223V35.5H142.297Z" fill="#F4E5C2"/>
<path d="M151.634 20.707V35.5H148.373V20.707H151.634ZM148.158 16.8242C148.158 16.3229 148.319 15.9082 148.643 15.5801C148.975 15.2428 149.433 15.0742 150.017 15.0742C150.592 15.0742 151.045 15.2428 151.378 15.5801C151.71 15.9082 151.876 16.3229 151.876 16.8242C151.876 17.3164 151.71 17.7266 151.378 18.0547C151.045 18.3828 150.592 18.5469 150.017 18.5469C149.433 18.5469 148.975 18.3828 148.643 18.0547C148.319 17.7266 148.158 17.3164 148.158 16.8242Z" fill="#F4E5C2"/>
<path d="M164.083 32.4375V8H167.344V35.5H164.393L164.083 32.4375ZM154.598 28.2676V27.9805C154.598 26.8594 154.728 25.8385 154.989 24.918C155.249 23.9883 155.626 23.1908 156.12 22.5254C156.614 21.8509 157.216 21.3359 157.926 20.9805C158.635 20.6159 159.435 20.4336 160.324 20.4336C161.204 20.4336 161.977 20.6068 162.642 20.9531C163.306 21.2995 163.872 21.7962 164.339 22.4434C164.806 23.0814 165.179 23.847 165.458 24.7402C165.736 25.6243 165.934 26.6087 166.05 27.6934V28.6094C165.934 29.6667 165.736 30.6328 165.458 31.5078C165.179 32.3828 164.806 33.1393 164.339 33.7773C163.872 34.4154 163.302 34.9076 162.628 35.2539C161.963 35.6003 161.186 35.7734 160.297 35.7734C159.417 35.7734 158.622 35.5866 157.912 35.2129C157.212 34.8392 156.614 34.3151 156.12 33.6406C155.626 32.9661 155.249 32.1732 154.989 31.2617C154.728 30.3411 154.598 29.3431 154.598 28.2676ZM157.845 27.9805V28.2676C157.845 28.9421 157.903 29.571 158.02 30.1543C158.146 30.7376 158.339 31.2526 158.6 31.6992C158.86 32.1367 159.197 32.4831 159.61 32.7383C160.032 32.9844 160.535 33.1074 161.119 33.1074C161.856 33.1074 162.462 32.9434 162.938 32.6152C163.414 32.2871 163.787 31.8451 164.056 31.2891C164.335 30.724 164.523 30.0951 164.622 29.4023V26.9277C164.568 26.39 164.456 25.8887 164.285 25.4238C164.124 24.959 163.904 24.5534 163.625 24.207C163.347 23.8516 163.001 23.5781 162.588 23.3867C162.184 23.1862 161.703 23.0859 161.146 23.0859C160.553 23.0859 160.05 23.2135 159.637 23.4688C159.224 23.724 158.883 24.0749 158.613 24.5215C158.353 24.9681 158.159 25.4876 158.034 26.0801C157.908 26.6725 157.845 27.306 157.845 27.9805Z" fill="#F4E5C2"/>
<path d="M177.166 35.7734C176.088 35.7734 175.114 35.5957 174.242 35.2402C173.38 34.8757 172.643 34.3698 172.033 33.7227C171.431 33.0755 170.968 32.3145 170.645 31.4395C170.321 30.5645 170.16 29.6211 170.16 28.6094V28.0625C170.16 26.9049 170.326 25.8568 170.658 24.918C170.991 23.9792 171.453 23.1771 172.046 22.5117C172.639 21.8372 173.34 21.3223 174.148 20.9668C174.956 20.6113 175.832 20.4336 176.775 20.4336C177.817 20.4336 178.729 20.6113 179.51 20.9668C180.292 21.3223 180.939 21.8236 181.451 22.4707C181.972 23.1087 182.358 23.8698 182.609 24.7539C182.87 25.638 183 26.6133 183 27.6797V29.0879H171.736V26.7227H179.793V26.4629C179.775 25.8704 179.659 25.3145 179.443 24.7949C179.236 24.2754 178.918 23.8561 178.486 23.5371C178.055 23.2181 177.48 23.0586 176.762 23.0586C176.223 23.0586 175.742 23.1771 175.32 23.4141C174.907 23.6419 174.561 23.9746 174.283 24.4121C174.004 24.8496 173.789 25.3783 173.636 25.998C173.492 26.6087 173.42 27.2969 173.42 28.0625V28.6094C173.42 29.2565 173.506 29.8581 173.676 30.4141C173.856 30.9609 174.117 31.4395 174.458 31.8496C174.799 32.2598 175.212 32.5833 175.697 32.8203C176.182 33.0482 176.735 33.1621 177.355 33.1621C178.136 33.1621 178.832 33.0026 179.443 32.6836C180.054 32.3646 180.584 31.9134 181.033 31.3301L182.744 33.0117C182.43 33.4766 182.021 33.9232 181.518 34.3516C181.015 34.7708 180.4 35.1126 179.672 35.377C178.953 35.6413 178.118 35.7734 177.166 35.7734Z" fill="#F4E5C2"/>
</svg>
